# AST/ASF file generated using VICON BodyLanguage
# -----------------------------------------------
:version 1.10
:name VICON
:units
  mass 1.0
  length 0.45
  angle deg
:documentation
   .ast/.asf automatically generated from VICON data using
   VICON BodyBuilder and BodyLanguage model FoxedUp or BRILLIANT.MOD
:root
   order TX TY TZ RX RY RZ
   axis XYZ
   position 0 0 0  
   orientation 0 0 0 
:bonedata
  begin
     id 1 
     name lhipjoint
     direction 0.682418 -0.694059 0.22932 
     length 2.25561 
     axis 0 0 0  XYZ
  end
  begin
     id 2 
     name lfemur
     direction 0.34202 -0.939693 0  
     length 6.96448  
     axis 0 0 20  XYZ
    dof rx ry rz
    limits (-160.0 20.0)
           (-70.0 70.0)
           (-60.0 70.0)
  end
  begin
     id 3 
     name ltibia
     direction 0.34202 -0.939693 0   
     length 6.88553   
     axis 0 0 20   XYZ
    dof rx
    limits (-10.0 170.0)
  end
  begin
     id 4 
     name lfoot
     direction 0.0723587 -0.198804 0.977364   
     length 1.88518   
     axis -90 7.62852e-016 20   XYZ
    dof rx rz
    limits (-45.0 90.0)
           (-70.0 20.0)
  end
  begin
     id 5 
     name ltoes
     direction 1.53558e-011 -4.21962e-011 1   
     length 0.952124   
     axis -90 7.62852e-016 20   XYZ
    dof rx
    limits (-90.0 20.0)
  end
  begin
     id 6 
     name rhipjoint
     direction -0.657603 -0.71533 0.236348   
     length 2.18854  
     axis 0 0 0  XYZ 
  end
  begin
     id 7 
     name rfemur
     direction -0.34202 -0.939693 0   
     length 6.86686   
     axis 0 0 -20   XYZ
    dof rx ry rz
    limits (-160.0 20.0)
           (-70.0 70.0)
           (-70.0 60.0)
  end
  begin
     id 8 
     name rtibia
     direction -0.34202 -0.939693 0   
     length 6.59503   
     axis 0 0 -20   XYZ
    dof rx
    limits (-10.0 170.0)
 end
 begin
     id 9 
     name rfoot
     direction -0.101977 -0.280179 0.954516   
     length 1.93723  
     axis -90 -7.62852e-016 -20   XYZ
    dof rx rz
    limits (-45.0 90.0)
           (-20.0 70.0)
  end
  begin
     id 10 
     name rtoes
     direction -1.53564e-011 -4.21897e-011 1   
     length 0.970315   
     axis -90 -7.62852e-016 -20   XYZ
    dof rx
    limits (-90.0 20.0)
  end
  begin
     id 11 
     name lowerback
     direction -0.0339559 0.999421 -0.00235966   
     length 1.88543   
     axis 0 0 0   XYZ
    dof rx ry rz
    limits (-20.0 45.0)
           (-30.0 30.0)
           (-30.0 30.0)
  end
  begin
     id 12 
     name upperback
     direction 0.00401003 0.999739 0.0224689   
     length 1.8856   
     axis 0 0 0   XYZ
    dof rx ry rz
    limits (-20.0 45.0)
           (-30.0 30.0)
           (-30.0 30.0)
  end
  begin
     id 13 
     name thorax
     direction 0.0198619 0.999546 0.0226536   
     length 1.88352   
     axis 0 0 0   XYZ
    dof rx ry rz
    limits (-20.0 45.0)
           (-30.0 30.0)
           (-30.0 30.0)
  end
  begin
     id 14 
     name lowerneck
     direction -0.0461848 0.998632 0.0245198   
     length 1.34895   
     axis 0 0 0   XYZ
    dof rx ry rz
    limits (-20.0 45.0)
           (-30.0 30.0)
           (-30.0 30.0)
  end
  begin
     id 15 
     name upperneck
     direction -0.0180627 0.994724 -0.100984   
     length 1.35214   
     axis 0 0 0   XYZ
    dof rx ry rz
    limits (-20.0 45.0)
           (-30.0 30.0)
           (-30.0 30.0)
  end
  begin
     id 16
     name head
     direction -0.00374772 0.999293 -0.037403  
     length 1.3568  
     axis 0 0 0   XYZ
    dof rx ry rz
    limits (-20.0 45.0)
           (-30.0 30.0)
           (-30.0 30.0)
  end
  begin
     id 17 
     name lclavicle
     direction 0.971773 0.191119 0.138311  
     length 2.84954  
     axis 0 0 0   XYZ
    dof ry rz
    limits (-20.0 10.0)
           (0.0 20.0)
  end
  begin
     id 18 
     name lhumerus
     direction 1 -4.4897e-011 -2.43761e-027   
     length 4.40919   
     axis 180 -30 -90   XYZ
    dof rx ry rz
    limits (-60.0 90.0)
           (-90.0 90.0)
           (-90.0 90.0)
  end
  begin
     id 19
     name lradius
     direction 1 -4.4896e-011 -9.1621e-027   
     length 3.03857   
     axis 180 -30 -90   XYZ
    dof rx
    limits (-10.0 170.0)
  end
  begin
     id 20
     name lwrist
     direction 1 -4.4896e-011 -1.41363e-026   
     length 1.51928   
     axis 1.07133e-014 90 90   XYZ
    dof ry
    limits (-180.0 0.0)
 end
  begin
     id 21 
     name lhand
     direction 1 -4.48978e-011 -2.82725e-026   
     length 0.523208   
     axis 1.80403e-014 90 90   XYZ
    dof rx rz
    limits (-90.0 90.0)
           (-45.0 45.0)
  end
  begin
     id 22 
     name lfingers
     direction 1 -4.48977e-011 -5.6545e-026   
     length 0.421824   
     axis 3.60806e-014 90 90   XYZ
    dof rx
    limits (0.0 90.0)
  end
  begin
     id 23
     name lthumb
     direction 0.707107 -6.34962e-011 0.707107   
     length 0.605657   
     axis -90 45 2.85299e-015   XYZ
    dof rx rz
    limits (-45.0 45.0)
           (-45.0 45.0)
  end
  begin
     id 24 
     name rclavicle
     direction -0.957247 0.24311 0.156766   
     length 3.12406  
     axis 0 0 0   XYZ 
    dof ry rz
    limits (-10.0 20.0)
           (-20.0 0.0)
  end
  begin
     id 25 
     name rhumerus
     direction -1 -4.48964e-011 -1.70632e-027  
     length 4.61969   
     axis 180 30 90   XYZ
    dof rx ry rz
    limits (-90.0 60.0)
           (-90.0 90.0)
           (-90.0 90.0)
  end
  begin
     id 26 
     name rradius
     direction -1 -4.48966e-011 -6.60395e-027   
     length 3.09382   
     axis 180 30 90   XYZ
    dof rx
    limits (-10.0 170.0)
  end
  begin
     id 27 
     name rwrist
     direction -1 -4.48963e-011 -1.41363e-026   
     length 1.54691   
     axis 1.07133e-014 -90 -90   XYZ
    dof ry
    limits (-180.0 0.0)
  end
  begin
     id 28
     name rhand
     direction -1 -4.49013e-011 -2.82725e-026   
     length 0.500896   
     axis 1.80403e-014 -90 -90   XYZ
    dof rx rz
    limits (-90.0 90.0)
           (-45.0 45.0)
  end
  begin
     id 29
     name rfingers
     direction -1 -4.48902e-011 -5.6545e-026   
     length 0.403835   
     axis 3.60806e-014 -90 -90   XYZ
    dof rx
    limits (0.0 90.0)
  end
  begin
     id 30
     name rthumb
     direction -0.707107 -6.34953e-011 0.707107   
     length 0.579829   
     axis -90 -45 -2.85299e-015   XYZ
    dof rx rz
    limits (-45.0 45.0)
           (-45.0 45.0)
  end
:hierarchy
  begin
    root lhipjoint rhipjoint lowerback
    lhipjoint lfemur
    lfemur ltibia
    ltibia lfoot
    lfoot ltoes
    rhipjoint rfemur
    rfemur rtibia
    rtibia rfoot
    rfoot rtoes
    lowerback upperback
    upperback thorax
    thorax lowerneck lclavicle rclavicle
    lowerneck upperneck
    upperneck head
    lclavicle lhumerus
    lhumerus lradius
    lradius lwrist
    lwrist lhand lthumb
    lhand lfingers
    rclavicle rhumerus
    rhumerus rradius
    rradius rwrist
    rwrist rhand rthumb
    rhand rfingers
  end

#!OML:ASF E:\madness\Project 1\Capture day 1\Session 1\Female1.ASF
:FULLY-SPECIFIED
:DEGREES
1128
root -7.99725 14.3583 -5.03513 -362.934 -70.3241 378.386
lowerback 2.02389 0.720013 -5.87859
upperback -2.74238 0.618453 -1.98998
thorax -4.02051 0.433277 1.20095
lowerneck -3.25213 7.21155 3.60372
upperneck 27.6371 10.4618 -5.78758
head 9.76959 4.3885 -1.6867
rclavicle -1.14581e-014 -1.67725e-014
rhumerus -56.9922 -19.2861 -38.3244
rradius 57.328
rwrist -3.2146
rhand -14.2104 -46.7883
rfingers 7.12502
rthumb 11.9262 -76.4286
lclavicle -1.14581e-014 -1.67725e-014
lhumerus -53.9822 23.8849 63.0772
lradius 66.7815
lwrist -4.87023
lhand -36.2448 -9.87455
lfingers 7.12502
lthumb -9.34602 19.8983
rfemur -43.2528 -2.2587 16.0433
rtibia 67.0212
rfoot -34.0259 -5.37673
rtoes 16.533
lfemur -8.72467 -29.2103 7.05122
ltibia 26.1703
lfoot -7.32552 -11.8966
ltoes 16.0859
1129
root -8.0264 14.3731 -5.06364 -362.691 -70.3883 378.128
lowerback 1.99742 0.764532 -5.82041
upperback -2.77125 0.682028 -1.96609
thorax -4.03893 0.464603 1.1896
lowerneck -3.10248 7.24969 3.47268
upperneck 27.5242 10.4878 -5.63231
head 9.68485 4.41093 -1.61458
rclavicle -2.55314e-014 -1.7667e-014
rhumerus -57.0114 -19.1198 -38.5524
rradius 57.2416
rwrist -3.15272
rhand -13.4938 -47.2054
rfingers 7.12502
rthumb 12.6171 -76.8044
lclavicle -2.55314e-014 -1.7667e-014
lhumerus -54.0766 23.7957 63.0873
lradius 66.8558
lwrist -4.89412
lhand -36.3797 -9.13117
lfingers 7.12502
lthumb -9.47614 20.6358
rfemur -43.0187 -2.22105 16.336
rtibia 66.7379
rfoot -33.9022 -5.55167
rtoes 16.2466
lfemur -8.67476 -29.3579 7.18684
ltibia 26.1568
lfoot -6.19112 -11.9439
ltoes 19.3973
1130
root -8.05443 14.3888 -5.09576 -362.89 -70.5102 378.38
lowerback 1.86756 0.819384 -6.00232
upperback -2.76979 0.756975 -1.98161
thorax -3.9721 0.504957 1.27231
lowerneck -2.91687 7.29216 3.34754
upperneck 27.3593 10.521 -5.49651
head 9.5766 4.43787 -1.55138
rclavicle 5.5728e-014 6.73383e-015
rhumerus -57.0068 -19.0383 -38.8063
rradius 57.1768
rwrist -3.18536
rhand -13.3269 -46.7424
rfingers 7.12502
rthumb 12.7781 -76.3314
lclavicle 5.5728e-014 6.73383e-015
lhumerus -54.3023 23.6826 63.1262
lradius 67.1416
lwrist -4.73429
lhand -36.5308 -8.65661
lfingers 7.12502
lthumb -9.622 21.1037
rfemur -42.9017 -2.046 16.4318
rtibia 66.4741
rfoot -33.7347 -5.70351
rtoes 16.3733
lfemur -8.60433 -29.408 7.1402
ltibia 26.1264
lfoot -5.46253 -11.8743
ltoes 19.4382
1131
root -8.0779 14.4037 -5.12906 -363.3 -70.5217 378.819
lowerback 1.82194 0.817062 -6.19475
upperback -2.71381 0.750399 -2.03319
thorax -3.89063 0.503041 1.32776
lowerneck -3.07356 7.40493 3.52259
upperneck 27.4305 10.7165 -5.69938
head 9.66578 4.52013 -1.62335
rclavicle 3.67348e-014 -2.19906e-014
rhumerus -56.868 -19.0273 -39.1242
rradius 57.0773
rwrist -3.20325
rhand -13.5171 -46.4964
rfingers 7.12502
rthumb 12.5947 -76.0967
lclavicle 3.67348e-014 -2.19906e-014
lhumerus -54.2533 23.7633 63.1107
lradius 67.1724
lwrist -4.69055
lhand -36.6509 -8.43631
lfingers 7.12502
lthumb -9.73788 21.3186
rfemur -42.7587 -1.93846 16.4297
rtibia 66.2248
rfoot -33.7234 -5.67595
rtoes 16.6562
lfemur -8.57131 -29.484 7.05379
ltibia 26.0465
lfoot -4.8617 -11.8567
ltoes 18.4561
1132
root -8.10281 14.4223 -5.16161 -363.49 -70.4653 378.924
lowerback 1.91441 0.771118 -6.25245
upperback -2.6453 0.682513 -2.05009
thorax -3.86774 0.468993 1.34573
lowerneck -3.13551 7.5083 3.54259
upperneck 27.384 10.897 -5.84731
head 9.68165 4.59127 -1.65644
rclavicle 2.76251e-014 1.07988e-014
rhumerus -56.7262 -19.0038 -39.4782
rradius 57.016
rwrist -3.17169
rhand -13.4733 -46.6173
rfingers 7.12502
rthumb 12.6369 -76.215
lclavicle 2.76251e-014 1.07988e-014
lhumerus -54.1549 24.0747 62.9223
lradius 66.8951
lwrist -4.79885
lhand -36.5394 -9.49497
lfingers 7.12502
lthumb -9.63031 20.2649
rfemur -42.4396 -1.94919 16.5427
rtibia 65.9743
rfoot -33.8171 -5.57654
rtoes 16.7168
lfemur -8.47303 -29.596 7.04891
ltibia 25.9636
lfoot -4.04388 -11.9309
ltoes 18.7851
1133
root -8.13204 14.4396 -5.1937 -363.622 -70.4332 379.051
lowerback 1.84959 0.767566 -6.30629
upperback -2.62602 0.679373 -2.10393
thorax -3.81105 0.465889 1.32129
lowerneck -2.95947 7.56856 3.22606
upperneck 27.2213 10.9142 -5.46056
head 9.54746 4.6173 -1.47764
rclavicle 3.04436e-014 2.85753e-014
rhumerus -56.7582 -19.0629 -39.7294
rradius 56.9601
rwrist -3.03226
rhand -13.2644 -46.6223
rfingers 7.12502
rthumb 12.8383 -76.2075
lclavicle 3.04436e-014 2.85753e-014
lhumerus -54.3462 24.1235 62.763
lradius 67.0073
lwrist -4.79484
lhand -36.2893 -10.3767
lfingers 7.12502
lthumb -9.38893 19.3942
rfemur -42.1838 -2.04163 16.6724
rtibia 65.7089
rfoot -33.7974 -5.46587
rtoes 17.1121
lfemur -8.44659 -29.5892 7.02769
ltibia 25.9497
lfoot -3.2347 -11.9724
ltoes 19.1443
